<?xml version="1.0" encoding="utf-8"?>
<!-- Generator: Adobe Illustrator 16.0.0, SVG Export Plug-In . SVG Version: 6.00 Build 0)  -->
<!DOCTYPE svg PUBLIC "-//W3C//DTD SVG 1.1//EN" "http://www.w3.org/Graphics/SVG/1.1/DTD/svg11.dtd">
<svg version="1.1" id="Layer_1" xmlns="http://www.w3.org/2000/svg" xmlns:xlink="http://www.w3.org/1999/xlink" x="0px" y="0px"
	 width="360px" height="360px" viewBox="0 0 360 360" enable-background="new 0 0 360 360" xml:space="preserve">
<g>
	<path fill="#FFFFFF" d="M86.334,180.221c-14.972,0-27.525,12.141-27.525,27.525c0,14.982,12.146,27.534,27.525,27.534
		c14.983,0,27.525-12.552,27.525-27.534C113.859,192.765,101.718,180.221,86.334,180.221z"/>
	<path fill="#FFFFFF" d="M313.422,5.361c-2.832-1.617-6.086-3.239-8.916-4.861c-0.402,0-0.453,0.411-0.855,0.411
		c0,1.212,0.35,2.02,0.35,3.235c0,21.048,0,42.5,0,63.551c0,2.022-0.752,3.64-2.377,4.855c-9.301,7.692-18.994,14.982-28.314,22.668
		c-1.605,1.623-2.818,1.212-4.428,0c-8.914-7.284-18.473-14.574-27.791-21.854c-2.029-1.617-3.09-3.244-3.09-6.076
		c0-20.644,0-41.694,0-62.742c0-1.213,0.666-2.425,1.068-4.048c-2.01,0.814-2.279,0.814-3.1,1.215
		c-10.525,5.262-19.76,12.145-27.051,21.458c-31.57,39.26-19.252,97.951,26.08,120.624c2.43,1.208,3.002,2.422,3.002,5.265
		c0,58.283,0,116.966,0,175.27c0,1.207,0,2.833,0,4.439c1,19.029,18.533,33.199,37.15,30.367
		c16.607-2.431,27.85-15.786,27.85-33.198c0-59.089,0-117.792,0-176.878c0-2.842,1.555-4.459,3.986-5.675
		c12.955-6.477,23.652-15.786,31.346-27.927C362.211,77.814,351.461,28.839,313.422,5.361z"/>
	<path fill="#FFFFFF" d="M205.75,265c0,0,0,0-0.418,0c-18.199,0-36.423,0-54.639,0c-4.449,0-8.094-1.092-10.112-5.148
		c-2.029-4.459-0.412-7.865,2.42-11.099c5.262-6.086,12.15-14.753,20.244-14.753c14.169,0,27.927,0,42.087,0
		c0.418,0,0.668,0,0.668,0c0-24,0-47.704,0-71.181c-11-6.879-19.965-16.599-27.246-27.927c-33.188,0.805-66.649,2.431-99.837,5.262
		c0-1.215,0.469-2.832,0.871-4.458c5.674-23.479,14.204-45.33,26.756-65.977c0.803-1.214,1.634-2.022,2.443-2.832
		c0.808-0.813,2.031-1.215,3.247-1.616c5.664-2.431,19.024-6.478,49.39-8.907c1.216-8.908,3.639-17.403,6.882-25.507
		c-13.767,0.813-27.524,2.028-41.291,4.052c-14.571,2.425-27.525,7.285-36.422,20.24c-12.954,18.618-22.675,38.861-28.74,60.713
		c-1.215,4.859-2.43,9.721-4.459,16.197c-1.617-2.841-3.233-4.652-4.047-6.679c0,0-10.116-16.381-24.692-16.381
		c-2.423,0-5.263,0-7.686,0C14.283,109,10,113.432,9,120.321c0,4.851,0,9.71,0,14.57C9,142.173,14.283,147,21.975,147
		c7.291,0,14.571,0,22.263,0c2.832,0,6.076,0,8.907,0c0.402,1,0.402,0.83,0.811,1.23c-0.811,0.402-2.026,0.823-2.839,1.626
		c-18.618,17.814-28.735,39.67-28.328,65.578c0.401,15.384,1.617,31.172,3.233,46.556c1.215,11.73,4.047,23.479,9.309,34.404
		c2.43,4.861,4.914,8.498,10.177,9.301c2.43,0.421,2.492,2.029,2.492,4.057c0,6.469,0,12.954,0,19.42
		C48,338.09,53.956,344,62.856,344c7.692,0,15.384,0,23.076,0c9.711,0,15.068-5.91,15.068-15.63c0-4.861,0-10.122,0-15.384
		c35,2.43,69.937,4.014,104.75,4.014c0.404,0,0.25,0,1.25,0v-17.771C207,287.9,207,277,207,265c-1,0-0.445,0-0.846,0
		C206.154,265,206.154,265,205.75,265z M86.334,235.28c-15.38,0-27.525-12.552-27.525-27.534c0-15.384,12.553-27.525,27.525-27.525
		c15.384,0,27.525,12.543,27.525,27.525C113.859,222.729,101.317,235.28,86.334,235.28z"/>
</g>
</svg>
